PathFileType	4	(X/Y/Z)	29_1_48_p1_0-363_filt_butterworth.trc
DataRate	CameraRate	NumFrames	NumMarkers	Units	OrigDataRate	OrigDataStartFrame	OrigNumFrames
59.0	59.0	6	27	m	59.0	272	363
Frame#	Time	RHip			RKnee			RAnkle			RBigToe			RSmallToe			RHeel			LHip			LKnee			LAnkle			LBigToe			LSmallToe			LHeel			Neck			Head			Nose			RShoulder			RElbow			RWrist			RThumb			RIndex			RPinky			LShoulder			LElbow			LWrist			LThumb			LIndex			LPinky			
		X1	Y1	Z1	X2	Y2	Z2	X3	Y3	Z3	X4	Y4	Z4	X5	Y5	Z5	X6	Y6	Z6	X7	Y7	Z7	X8	Y8	Z8	X9	Y9	Z9	X10	Y10	Z10	X11	Y11	Z11	X12	Y12	Z12	X13	Y13	Z13	X14	Y14	Z14	X15	Y15	Z15	X16	Y16	Z16	X17	Y17	Z17	X18	Y18	Z18	X19	Y19	Z19	X20	Y20	Z20	X21	Y21	Z21	X22	Y22	Z22	X23	Y23	Z23	X24	Y24	Z24	X25	Y25	Z25	X26	Y26	Z26	X27	Y27	Z27	
272	4.610169491525424	0.3633590685151568	0.6223888939705823	0.8590395413650334	0.3576890668409548	0.7076552757785177	1.3126695281649345	0.29571559856442997	0.8117828751841816	1.7480390431321806	0.312106903735527	0.5987961191739231	1.761878907482996	0.3648571482416688	0.6308840840101434	1.7616728198684268	0.263025725816337	0.8868343406404806	1.814524927438144	0.18763447489493812	0.5281064525007875	0.8682033897265085	0.14515378364013776	0.6581908939412083	1.2905123191240204	0.10200357110821193	0.7959023497571425	1.732659965042311	0.13161550565134245	0.5744431393091316	1.7319013308753706	0.07839358315631259	0.6020148654798314	1.732175203814308	0.10851168937968736	0.8512270982896074	1.779079347818377	0.24082471060753374	0.5325453295996972	0.33191698894995125	0.30305443742625543	0.4884381638863001	0.09799545228624709	0.3377614131566757	0.5191268766602318	0.20048936410969642	0.3137866546809848	0.6464332523521717	0.3518637520908554	0.5017814195490045	0.6523864875862075	0.23470641733339948	0.3592278127514336	0.5194093198643094	0.12280949946861495	0.27466195896767337	0.4507085970117064	0.08201028948642605	0.2708635986962423	0.46266889983870735	0.06310606979660617	0.322432611541633	0.4224334318030212	0.06799480918888891	0.13506816592375342	0.4478303815759761	0.39786085138156374	0.2778138275612808	0.19703313482062504	0.29699170810168196	0.2523213548198578	0.3185467705448809	0.15028007376484015	0.20212167855138816	0.4079683715660601	0.09849622803978576	0.1973849261990896	0.4075435381314412	0.07261543681961315	0.2295352607760194	0.3857409248234348	0.06228262172295604
273	4.627118644067797	0.3634217468626947	0.622608612629229	0.8594119138131681	0.35769214044928205	0.707666823636843	1.3127838208802838	0.2957961244245726	0.8115249281819745	1.7474122567021766	0.31149746929578637	0.6003569129833969	1.762587051361436	0.3636151513609378	0.635370974928515	1.7608560374259166	0.2631589475566203	0.8862715523851813	1.816260128358806	0.1876924802424034	0.5287940175370849	0.8698130225439943	0.14506458053555854	0.6584137863473694	1.291046298449304	0.10199307156807226	0.7959181686202528	1.732684472477195	0.13159431532993382	0.5742024917167199	1.7318532357169374	0.07679196466483595	0.6058885490687185	1.7338300091792498	0.1097662279012181	0.8522747663805853	1.7795285449938008	0.24072984675613207	0.5330021940253715	0.33293850078640874	0.30190826610485993	0.48520306157919035	0.09872310075744287	0.3335100346955316	0.5252959606167671	0.2004629257744118	0.3132639079522758	0.64703638334996	0.3542371345736948	0.4996922349624746	0.6535717866479556	0.23795917091022628	0.3555074519416417	0.5188677038570195	0.12160503173038316	0.2726041525770409	0.44574664195915875	0.0838651096340378	0.26817640472406545	0.4588974120210439	0.06439675669327866	0.3220421324024731	0.4190498370297118	0.06737760299517909	0.13315130265403052	0.4474372282996195	0.3986287013491641	0.27796050475497486	0.19502436043409319	0.29763400910630655	0.25240468724209303	0.31827093517300864	0.1500867614671659	0.2022915291816598	0.4057165528168262	0.09820055589523247	0.19773903563187417	0.408459763909041	0.0745496058121658	0.22954370737785074	0.3862250096500274	0.06313907240049212
274	4.6440677966101696	0.36356817302513544	0.6232043929165676	0.8606090197618402	0.35766653485577515	0.707896643717258	1.3143613137849286	0.29557019542113244	0.8114120380460695	1.7482760908054775	0.31011023934582715	0.6044839519504323	1.7644025472530038	0.3620615629543129	0.6409333270511327	1.7615838793860945	0.26326091602897317	0.8857276761138397	1.8175102898693907	0.18771399057420468	0.5294424790869002	0.8713606621654947	0.14494491926141215	0.6589165731414275	1.2923815744010099	0.10199057866534926	0.7959179989100986	1.7327095284815368	0.1312028798851886	0.5770804439746458	1.733111237190021	0.07466789250531307	0.6110805343542123	1.736038890503929	0.11024647766748277	0.8525460701731298	1.7801247611682258	0.240714887570257	0.5331423502010849	0.33347967717017035	0.30158509530310834	0.4767948231461541	0.10119481446855617	0.3313460920478043	0.5204173826936631	0.20206665211764582	0.31320549189028757	0.6478127360673421	0.3564312360770968	0.49793156106916825	0.6549887065762412	0.24005963297350646	0.35200477158704085	0.5187288242342551	0.12038250901842337	0.2715868629583643	0.4407414439684079	0.08496042380464344	0.2658428169154208	0.4575894840645082	0.06525280197343898	0.3213570385989546	0.41914372587863813	0.06580926912745587	0.1298871522542277	0.44713550428228044	0.3988990169184411	0.27786539773369845	0.19336437215181695	0.2976018538516637	0.25256469126364817	0.31821269072152947	0.14918596254035638	0.20237286327205006	0.40267853982630275	0.09799274284743006	0.19771948962574307	0.40516461149179556	0.07765554458708823	0.22957224668772372	0.38671026236980466	0.06395910202353441
275	4.661016949152542	0.3638012605575056	0.6241085570393676	0.8625046107439973	0.35760175687671636	0.7084789307286737	1.3178914616686668	0.2951979762395383	0.8113517876202889	1.7507906189803575	0.3083469362501027	0.6100102913403199	1.7667949384053323	0.36092193299689973	0.6450065963788607	1.7642859979353982	0.2632388450154204	0.8850871676653249	1.8175178895521313	0.18772497558715043	0.530172948125578	0.8728985012597179	0.1449289710220027	0.6595929319921251	1.2941886175964696	0.10201649472700106	0.7958874855930885	1.732723838372221	0.13020291906633477	0.5850172195932122	1.7365175506812176	0.07307335376007515	0.6150987297824675	1.737743306927735	0.1102851759263786	0.852206158335646	1.7811981506425658	0.24041734914680535	0.5319386143155622	0.33375096842773927	0.30144307607431625	0.4654023825526928	0.10354646385943571	0.33230646157937105	0.5022651009666596	0.2053447688652141	0.3132689216043153	0.6483699676826415	0.3575851789580943	0.49687359495929967	0.655856467113058	0.24041123062244105	0.3493251397647935	0.5189884881628947	0.12021814018866886	0.2716891468282761	0.43657156415567727	0.08517076549470337	0.26413098922343115	0.4586841165161708	0.06604518748445211	0.32014701457896544	0.4212227876103726	0.06389930845243808	0.12625263497342493	0.447009451527419	0.3988581145387784	0.27713002144069976	0.1928469087696871	0.2978640920944321	0.252910982802847	0.31837534517442595	0.14899482876624603	0.2022395925544155	0.39963304421124257	0.09881884852384837	0.19748719036759535	0.3992698097621481	0.08057398164743644	0.23013672539748575	0.3860080057512848	0.06502262666955316
276	4.677966101694915	0.3640420833648237	0.6250186340406035	0.8644188912280119	0.3575580885386763	0.7092484972568924	1.3216155351543935	0.2949057154927607	0.8113358436784053	1.7539331204117037	0.30706226287765775	0.614252356383569	1.7685977626489238	0.36054082696017503	0.6464059847350663	1.7673357092766664	0.2630845205447457	0.8841450877838011	1.816205793974451	0.18775248996828917	0.5307911157931577	0.8740845231911043	0.14503430681109053	0.6600555246055537	1.2956344905349584	0.10206756356369409	0.7958514207717506	1.7327396192248097	0.1288656872786306	0.5957753970529363	1.7411478577028114	0.07248248872572209	0.6167632970738743	1.7384610471153532	0.11027111541038431	0.8518209700054208	1.7826234396193565	0.23964043082245362	0.5286649358545171	0.3339553149680298	0.30080030013124576	0.45597825668838887	0.10420413533903367	0.3349438717910373	0.4781354408542364	0.2087822596330785	0.3133399499165096	0.6485735692216348	0.3575881271882148	0.4963835842505151	0.657051238263829	0.239580196992493	0.347546309725846	0.5193061533587232	0.12076839671816396	0.27200836374381876	0.4349111411668601	0.0851690808406043	0.2625934807995827	0.45963362486020154	0.06761630212876743	0.3186445453042933	0.423302467728562	0.062271985509881625	0.12369789848078885	0.4469772134931203	0.39878330150018226	0.2752590205921611	0.19327066526340164	0.29883773549470977	0.2532793306330841	0.31855074890602775	0.15029077832120705	0.2018423028217035	0.39753047467703395	0.10193748408066423	0.19715699744424212	0.3946227971321282	0.0824294582261322	0.23139838889241854	0.3832764485356293	0.06639262617114362
277	4.694915254237288	0.36419776252706476	0.625637569590192	0.8657418456241728	0.35764646281389567	0.7098308593168376	1.3227235677840832	0.2947797086997323	0.8114838367513517	1.7558279014998923	0.30660776534308126	0.6159494535680826	1.7692794468835578	0.36063414239226227	0.6460979112131018	1.769110297528368	0.2629090539392056	0.8832541679571112	1.8143336682838265	0.18780710014493124	0.5310049075394068	0.8746325506035406	0.14515980863522746	0.6600313285561105	1.2962329972972377	0.10211224244405886	0.7958514347549324	1.7327634940465602	0.1279515152738363	0.6036615065759457	1.7445955500860455	0.07253556751414401	0.6168240700195086	1.738503696727492	0.11031819941511874	0.8518328560039612	1.7837807421462188	0.23862389005609214	0.5242793828739348	0.33410409740301444	0.2996323080839022	0.45216335970021637	0.10321190734057312	0.3373129619337527	0.4566007967980328	0.2109839009753086	0.3134866907158743	0.6485521459271256	0.35679036768106587	0.4958532379465458	0.6599883752377994	0.23861519702626996	0.3465887655074684	0.5194763381106814	0.12127212018999411	0.27195585736529765	0.435888323775775	0.08554955590693215	0.2614258112871764	0.4591299891177154	0.0697711436547408	0.31755412480488177	0.42495237361158955	0.06128546159469214	0.12271027241163134	0.44692680351721736	0.3987615471412918	0.27249326673540936	0.19416665594001592	0.3007147568333768	0.25296226973693403	0.31860617341553316	0.1528296961727324	0.20135578544673927	0.3969174907750089	0.10665962861150245	0.19690436318196314	0.39256569318628054	0.08336397396888566	0.23274039788289025	0.37938007726028306	0.06790650948710775
